<svg xmlns="http://www.w3.org/2000/svg" width="32" height="32" viewBox="0 0 120 120">
<g transform="matrix(1 0 0 1 60 60)">
	<linearGradient id="lg1" gradientUnits="objectBoundingBox" gradientTransform="matrix(1 0 0 1 0 0)" x1="0" y1="0.5" x2="1" y2="0.5">
		<stop offset="0%" style="stop-color:rgba(11, 11, 255, 1);"></stop>
		<stop offset="100%" style="stop-color:rgba(117, 117, 255, 1);"></stop>
	</linearGradient>
	<rect style="stroke: rgb(0,0,0); stroke-width: 0; stroke-dasharray: none; stroke-linecap: butt; stroke-dashoffset: 0; stroke-linejoin: miter; stroke-miterlimit: 4; fill: url(#lg1); fill-rule: nonzero; opacity: 1;" x="-50" y="-37.5" rx="10" ry="10" width="100" height="75"></rect>
</g>
<g transform="matrix(1 0 0 1 30 45)">
	<linearGradient id="lg2" gradientUnits="objectBoundingBox" gradientTransform="matrix(1 0 0 1 0 0)" x1="0" y1="0.5" x2="1" y2="0.5">
		<stop offset="0%" style="stop-color:rgba(0, 238, 0, 1);"></stop>
		<stop offset="100%" style="stop-color:rgba(136, 255, 136, 1);"></stop>
	</linearGradient>
	<circle style="stroke: rgb(0,0,0); stroke-width: 0; stroke-dasharray: none; stroke-linecap: butt; stroke-dashoffset: 0; stroke-linejoin: miter; stroke-miterlimit: 4; fill: url(#lg2); fill-rule: nonzero; opacity: 1;" cx="0" cy="0" r="10"></circle>
</g>
<g transform="matrix(1 0 0 1 41 79)">
	<linearGradient id="lg3" gradientUnits="objectBoundingBox" gradientTransform="matrix(1 0 0 1 0 0)" x1="0" y1="0.5" x2="1" y2="0.5">
		<stop offset="0%" style="stop-color:rgba(34, 139, 34, 1);"></stop>
		<stop offset="100%" style="stop-color:rgba(22, 83, 22, 1);"></stop>
	</linearGradient>
	<polygon style="stroke: url(#lg3); stroke-width: 4; stroke-dasharray: none; stroke-linecap: butt; stroke-dashoffset: 0; stroke-linejoin: round; stroke-miterlimit: 4; fill: url(#lg3); fill-rule: nonzero; opacity: 1;" points="0,-15.31 26.91,15.31 -26.91,15.31 "></polygon>
</g>
<g transform="matrix(1 0 0 1 68 77)">
	<linearGradient id="lg4" gradientUnits="objectBoundingBox" gradientTransform="matrix(1 0 0 1 0 0)" x1="0" y1="0.5" x2="1" y2="0.5">
		<stop offset="0%" style="stop-color:rgba(19, 141, 19, 1);"></stop>
		<stop offset="100%" style="stop-color:rgba(35, 225, 35, 1);"></stop>
	</linearGradient>
	<polygon style="stroke: url(#lg4); stroke-width: 4; stroke-dasharray: none; stroke-linecap: butt; stroke-dashoffset: 0; stroke-linejoin: round; stroke-miterlimit: 4; fill: url(#lg4); fill-rule: nonzero; opacity: 1;" points="0,-19.39 35.71,19.39 -35.71,19.39 "></polygon>
</g>
<g transform="matrix(1 0 0 1 60 60)">
	<rect style="stroke: rgb(0,0,0); stroke-width: 4; stroke-dasharray: none; stroke-linecap: butt; stroke-dashoffset: 0; stroke-linejoin: miter; stroke-miterlimit: 4; fill: rgb(0,0,0); fill-opacity: 0; fill-rule: nonzero; opacity: 1;" x="-50" y="-37.5" rx="10" ry="10" width="100" height="75"></rect>
</g>
<g transform="matrix(-0.82 -0.57 0.57 -0.82 88.38 50.84)">
	<linearGradient id="lg5" gradientUnits="objectBoundingBox" gradientTransform="matrix(1 0 0 1 0 0)" x1="0" y1="0.5" x2="1" y2="0.5">
		<stop offset="0%" style="stop-color:rgba(0, 0, 0, 1);"></stop>
		<stop offset="100%" style="stop-color:rgba(55, 55, 55, 1);"></stop>
	</linearGradient>
	<filter id="shd" y="-25%" height="150%" x="-45%" width="190%">
		<feGaussianBlur in="SourceAlpha" stdDeviation="2"></feGaussianBlur>
		<feOffset dx="0" dy="0" result="oBlur"></feOffset>
		<feFlood flood-color="rgb(0,0,0)" flood-opacity="1"></feFlood>
		<feComposite in2="oBlur" operator="in"></feComposite>
		<feMerge>
			<feMergeNode></feMergeNode>
			<feMergeNode in="SourceGraphic"></feMergeNode>
		</feMerge>
	</filter>
	<polygon style="stroke: url(#lg5); stroke-width: 4; stroke-dasharray: none; stroke-linecap: butt; stroke-dashoffset: 0; stroke-linejoin: round; stroke-miterlimit: 4; fill: url(#lg5); fill-rule: nonzero; opacity: 1;filter: url(#shd);" points="0,-37.5 -8,-21.5 -8,37.5 8,37.5 8,-21.5 "></polygon>
</g>
<g transform="matrix(-0.82 -0.57 0.57 -0.82 91.08 41.71)">
	<polyline style="stroke: rgb(255,255,255); stroke-width: 2; stroke-dasharray: none; stroke-linecap: butt; stroke-dashoffset: 0; stroke-linejoin: miter; stroke-miterlimit: 4; fill: rgb(0,0,0); fill-opacity: 0; fill-rule: nonzero; opacity: 1;" points="0,-25 0,25 "></polyline>
</g>
<g transform="matrix(-0.82 -0.57 0.57 -0.82 95.95 44.8)">
	<polyline style="stroke: rgb(255,255,255); stroke-width: 2; stroke-dasharray: none; stroke-linecap: butt; stroke-dashoffset: 0; stroke-linejoin: miter; stroke-miterlimit: 4; fill: rgb(0,0,0); fill-opacity: 0; fill-rule: nonzero; opacity: 1;" points="0,-25 0,25 "></polyline>
</g>
</svg>